<svg xmlns="http://www.w3.org/2000/svg" width="164" height="77" viewBox="0 0 164 77">
    <defs>
        <linearGradient id="wp3eq8uota" x1="100%" x2="33.641%" y1="39.02%" y2="50%">
            <stop offset="0%" stop-color="#FF810A"/>
            <stop offset="100%" stop-color="#FF043C"/>
        </linearGradient>
    </defs>
    <path fill="url(#wp3eq8uota)" fill-rule="evenodd" d="M764.618 987.41c20.952 0 36.471 17.048 36.471 38.001 0 20.987-16.964 38-37.89 38l-.055-.002-.626-.006c-20.613-.363-37.21-17.234-37.21-37.992h18.933c0 10.41 8.439 18.849 18.848 18.849 10.41 0 18.85-8.44 18.85-18.849 0-10.41-8.44-18.85-18.85-18.85h-47.923v18.85l-38.129-37.999 29.119-.001zm-68.328 33.149l18.89 18.89v23.852l-18.89-18.89v-23.852zm-33.14-33.148l18.89 18.89h-24.238l-18.891-18.89h24.239z" transform="translate(-638 -987)"/>
</svg>
