<svg xmlns="http://www.w3.org/2000/svg" version="1.1" xmlns:xlink="http://www.w3.org/1999/xlink" xmlns:svgjs="http://svgjs.com/svgjs" width="1440" height="560" preserveAspectRatio="none" viewBox="0 0 1440 560">
    <g mask="url(&quot;#SvgjsMask1446&quot;)" fill="none">
        <rect width="1440" height="560" x="0" y="0" fill="url(#SvgjsLinearGradient1447)"></rect>
        <path d="M1440 0L893.59 0L1440 276.11z" fill="rgba(255, 255, 255, .1)"></path>
        <path d="M893.59 0L1440 276.11L1440 321.20000000000005L640.6 0z" fill="rgba(255, 255, 255, .075)"></path>
        <path d="M640.6 0L1440 321.20000000000005L1440 461.26000000000005L625.24 0z" fill="rgba(255, 255, 255, .05)"></path>
        <path d="M625.24 0L1440 461.26000000000005L1440 527.7900000000001L612.53 0z" fill="rgba(255, 255, 255, .025)"></path>
        <path d="M0 560L509.69 560L0 403.28999999999996z" fill="rgba(0, 0, 0, .1)"></path>
        <path d="M0 403.28999999999996L509.69 560L863.77 560L0 340.99999999999994z" fill="rgba(0, 0, 0, .075)"></path>
        <path d="M0 341L863.77 560L1188.67 560L0 326.4z" fill="rgba(0, 0, 0, .05)"></path>
        <path d="M0 326.4L1188.67 560L1194.72 560L0 106.73999999999998z" fill="rgba(0, 0, 0, .025)"></path>
    </g>
    <defs>
        <mask id="SvgjsMask1446">
            <rect width="1440" height="560" fill="#ffffff"></rect>
        </mask>
        <linearGradient x1="15.28%" y1="-39.29%" x2="84.72%" y2="139.29%" gradientUnits="userSpaceOnUse" id="SvgjsLinearGradient1447">
            <stop stop-color="#0e2a47" offset="0"></stop>
            <stop stop-color="rgba(139, 179, 230, 0.14)" offset="1"></stop>
        </linearGradient>
    </defs>
</svg>